<?xml version="1.0" standalone="no"?>
<!DOCTYPE svg PUBLIC "-//W3C//DTD SVG 20010904//EN"
 "http://www.w3.org/TR/2001/REC-SVG-20010904/DTD/svg10.dtd">
<svg version="1.0" xmlns="http://www.w3.org/2000/svg"
 width="500.000000pt" height="500.000000pt" viewBox="0 0 500.000000 500.000000"
 preserveAspectRatio="xMidYMid meet">

<g transform="translate(0.000000,500.000000) scale(0.100000,-0.100000)"
fill="#000000" stroke="none">
<path d="M2236 4809 c-278 -32 -612 -152 -861 -308 -282 -178 -529 -430 -688
-702 -50 -85 -53 -89 -87 -89 -19 0 -66 -7 -105 -15 -210 -45 -378 -199 -439
-404 -24 -80 -24 -781 0 -862 53 -182 199 -334 373 -391 56 -18 97 -22 279
-26 l213 -4 -22 53 c-100 251 -145 550 -120 801 15 158 34 247 81 391 161 483
529 875 997 1061 376 149 793 162 1188 35 122 -40 330 -145 445 -227 168 -119
357 -316 463 -485 104 -163 194 -388 238 -597 20 -92 23 -134 23 -335 0 -202
-2 -243 -22 -334 -116 -529 -439 -957 -902 -1195 -172 -89 -380 -158 -380
-127 0 18 -101 119 -148 150 -323 207 -752 -28 -752 -412 0 -116 58 -253 145
-342 62 -63 176 -122 268 -138 201 -34 423 82 513 269 34 72 35 72 87 84 98
24 282 92 403 151 350 170 660 452 873 792 55 89 156 294 177 362 16 51 18 53
73 70 196 61 346 216 396 410 22 86 22 730 0 824 -37 156 -155 305 -296 375
-75 37 -184 66 -251 66 -35 0 -38 3 -96 98 -345 559 -906 922 -1552 1002 -96
11 -411 11 -514 -1z"/>
<path d="M3283 3338 c-18 -24 -14 -67 7 -78 36 -19 20 -131 -27 -182 -12 -13
-13 -22 -6 -29 15 -15 58 53 74 115 15 59 8 164 -12 177 -19 12 -25 11 -36 -3z"/>
<path d="M3040 3200 c-8 -5 -12 -11 -9 -15 8 -8 69 6 69 16 0 12 -41 11 -60
-1z"/>
<path d="M3093 3117 c-4 -7 -21 -17 -38 -22 -21 -7 -31 -18 -32 -35 -3 -24 -2
-24 6 -3 12 27 44 37 71 23 22 -12 50 1 50 22 0 6 -6 5 -15 -2 -17 -14 -36 -5
-28 15 6 18 -3 20 -14 2z"/>
<path d="M2599 3061 c-13 -11 -21 -22 -17 -26 8 -8 58 23 58 36 0 14 -16 10
-41 -10z"/>
<path d="M2266 3001 c-3 -5 8 -11 26 -15 34 -7 44 -3 33 13 -8 13 -52 15 -59
2z"/>
<path d="M1803 2983 c-7 -2 -13 -11 -13 -18 0 -11 6 -11 30 -2 17 6 30 15 30
19 0 9 -28 9 -47 1z"/>
<path d="M2660 2970 c-8 -5 -24 -7 -35 -4 -16 5 -18 4 -7 -7 18 -19 15 -29
-10 -30 -23 0 -23 0 1 -10 13 -5 24 -8 25 -7 16 43 55 60 82 38 17 -15 19 1 2
18 -14 14 -38 15 -58 2z"/>
<path d="M3001 2953 c0 -13 -14 -37 -29 -54 -38 -43 -109 -52 -153 -19 -38 27
-50 20 -13 -9 69 -54 213 0 201 76 -3 21 -4 23 -6 6z"/>
<path d="M2310 2915 c-7 -8 -27 -15 -46 -15 -24 0 -37 -6 -44 -21 -7 -11 -9
-23 -7 -26 3 -2 10 5 17 16 13 25 46 27 70 6 10 -9 25 -13 34 -9 23 9 20 23
-4 17 -22 -6 -26 7 -8 25 6 6 9 14 6 17 -3 3 -11 -1 -18 -10z"/>
<path d="M1806 2867 c5 -16 2 -18 -15 -12 -12 3 -21 2 -21 -3 0 -19 39 -20 56
-1 21 23 42 24 66 2 10 -9 18 -11 18 -6 0 18 -24 31 -67 35 -38 3 -42 1 -37
-15z"/>
<path d="M2186 2803 c-4 -5 -14 -22 -21 -39 -26 -63 -133 -70 -187 -12 -15 16
-28 25 -28 19 0 -22 48 -60 84 -66 42 -8 94 0 118 19 10 7 25 29 33 50 15 36
15 43 1 29z"/>
<path d="M2496 2795 c-3 -9 -6 -26 -6 -36 0 -18 -3 -17 -25 8 -32 36 -34 10
-4 -41 12 -21 23 -62 26 -96 6 -61 21 -87 47 -77 19 8 27 59 11 77 -17 20 -38
114 -31 137 8 25 -9 51 -18 28z"/>
<path d="M1638 2745 c-26 -50 -50 -133 -46 -162 2 -22 8 -28 27 -28 33 0 48
50 24 77 -15 16 -14 21 1 63 22 57 18 95 -6 50z"/>
</g>
</svg>
